<svg xmlns="http://www.w3.org/2000/svg" viewBox="0 0 64 64">
<path d="M41.4,18.8c-0.2-0.1-0.4-0.1-0.6-0.2c-0.5-0.1-1-0.2-1.5-0.2c-0.1,0-0.2,0-0.2,0c-0.1,0-0.2,0-0.3,0 c-1.6,0-3.2,0.3-4.7,0.9c-1.2,0.5-2.4,1.2-3.4,2.2c-1.3,1.2-2.3,2.7-2.9,4.4c-0.6,1.7-0.9,3.5-0.9,5.3c0,0.4,0,0.8,0.1,1.2 c0,0.1,0,0.2,0.1,0.3c0,0.1,0.1,0.2,0.1,0.3c0.2,0.8,0.5,1.6,0.9,2.4c0.1,0.3,0.3,0.5,0.4,0.8c-2.3,0.7-4.2,2.3-5.2,4.5 c-1,2.2-0.9,4.8,0.4,6.9c1.3,2.1,3.5,3.4,6,3.6h25.5c2.5-0.2,4.8-1.5,6-3.6c1.3-2.1,1.4-4.7,0.4-6.9c-1-2.2-2.9-3.8-5.2-4.5 c0.1-0.2,0.2-0.5,0.4-0.8c0.4-0.8,0.7-1.6,0.9-2.4c0-0.1,0.1-0.2,0.1-0.3c0-0.1,0.1-0.2,0.1-0.3c0.1-0.4,0.1-0.8,0.1-1.2 c0-1.8-0.3-3.6-0.9-5.3C43.7,21.5,42.7,20,41.4,18.8z" fill="#E6E6E6"/>
<circle cx="28.5" cy="51.5" r="3.5" fill="#4A90E2"/>
<circle cx="39.5" cy="51.5" r="3.5" fill="#4A90E2"/>
</svg>
